<mxfile host="Electron" agent="Mozilla/5.0 (X11; Linux x86_64) AppleWebKit/537.36 (KHTML, like Gecko) draw.io/26.0.4 Chrome/128.0.6613.186 Electron/32.2.5 Safari/537.36" version="26.0.4">
  <diagram name="Page-1" id="y0vTa9De9oEKycRS4eAW">
    <mxGraphModel dx="1103" dy="696" grid="1" gridSize="10" guides="1" tooltips="1" connect="1" arrows="1" fold="1" page="1" pageScale="1" pageWidth="850" pageHeight="1100" math="0" shadow="0">
      <root>
        <mxCell id="0" />
        <mxCell id="1" parent="0" />
        <mxCell id="R_dcTgySiJL1P9pG5Nos-1" value="S&amp;amp;C Web App Instance" style="rounded=0;whiteSpace=wrap;html=1;" parent="1" vertex="1">
          <mxGeometry x="120" y="40" width="120" height="60" as="geometry" />
        </mxCell>
        <mxCell id="R_dcTgySiJL1P9pG5Nos-2" value="AWS Server&lt;div&gt;&lt;br&gt;&lt;/div&gt;" style="shape=module;align=left;spacingLeft=20;align=center;verticalAlign=top;whiteSpace=wrap;html=1;" parent="1" vertex="1">
          <mxGeometry x="320" y="40" width="120" height="60" as="geometry" />
        </mxCell>
        <mxCell id="R_dcTgySiJL1P9pG5Nos-4" value="Internship Manager" style="shape=module;align=left;spacingLeft=20;align=center;verticalAlign=top;whiteSpace=wrap;html=1;" parent="1" vertex="1">
          <mxGeometry x="720" y="40" width="120" height="60" as="geometry" />
        </mxCell>
        <mxCell id="R_dcTgySiJL1P9pG5Nos-6" value="" style="endArrow=none;dashed=1;html=1;rounded=0;" parent="1" edge="1">
          <mxGeometry width="50" height="50" relative="1" as="geometry">
            <mxPoint x="180" y="540" as="sourcePoint" />
            <mxPoint x="179.5" y="100" as="targetPoint" />
          </mxGeometry>
        </mxCell>
        <mxCell id="R_dcTgySiJL1P9pG5Nos-7" value="" style="endArrow=none;dashed=1;html=1;rounded=0;" parent="1" edge="1">
          <mxGeometry width="50" height="50" relative="1" as="geometry">
            <mxPoint x="380" y="540" as="sourcePoint" />
            <mxPoint x="379.5" y="100" as="targetPoint" />
          </mxGeometry>
        </mxCell>
        <mxCell id="R_dcTgySiJL1P9pG5Nos-9" value="" style="endArrow=none;dashed=1;html=1;rounded=0;" parent="1" edge="1">
          <mxGeometry width="50" height="50" relative="1" as="geometry">
            <mxPoint x="780" y="540" as="sourcePoint" />
            <mxPoint x="779.75" y="100" as="targetPoint" />
          </mxGeometry>
        </mxCell>
        <mxCell id="R_dcTgySiJL1P9pG5Nos-17" value="" style="rounded=0;whiteSpace=wrap;html=1;rotation=0;" parent="1" vertex="1">
          <mxGeometry x="370" y="120" width="20" height="60" as="geometry" />
        </mxCell>
        <mxCell id="R_dcTgySiJL1P9pG5Nos-20" value="request(advertisement)" style="html=1;verticalAlign=bottom;endArrow=block;curved=0;rounded=0;" parent="1" edge="1">
          <mxGeometry x="0.0018" width="80" relative="1" as="geometry">
            <mxPoint x="180" y="120" as="sourcePoint" />
            <mxPoint x="370" y="120" as="targetPoint" />
            <mxPoint as="offset" />
          </mxGeometry>
        </mxCell>
        <mxCell id="yOJc_dGgryi1LDqPYUcy-15" value="Advertisement Manager" style="shape=module;align=left;spacingLeft=20;align=center;verticalAlign=top;whiteSpace=wrap;html=1;" vertex="1" parent="1">
          <mxGeometry x="520" y="40" width="120" height="60" as="geometry" />
        </mxCell>
        <mxCell id="yOJc_dGgryi1LDqPYUcy-16" value="Database" style="shape=module;align=left;spacingLeft=20;align=center;verticalAlign=top;whiteSpace=wrap;html=1;" vertex="1" parent="1">
          <mxGeometry x="920" y="40" width="120" height="60" as="geometry" />
        </mxCell>
        <mxCell id="yOJc_dGgryi1LDqPYUcy-17" value="" style="endArrow=none;dashed=1;html=1;rounded=0;" edge="1" parent="1">
          <mxGeometry width="50" height="50" relative="1" as="geometry">
            <mxPoint x="580" y="540" as="sourcePoint" />
            <mxPoint x="579.6700000000001" y="100" as="targetPoint" />
          </mxGeometry>
        </mxCell>
        <mxCell id="yOJc_dGgryi1LDqPYUcy-18" value="" style="endArrow=none;dashed=1;html=1;rounded=0;" edge="1" parent="1">
          <mxGeometry width="50" height="50" relative="1" as="geometry">
            <mxPoint x="980" y="540" as="sourcePoint" />
            <mxPoint x="979.75" y="100" as="targetPoint" />
          </mxGeometry>
        </mxCell>
        <mxCell id="yOJc_dGgryi1LDqPYUcy-57" value="request(advertisement)" style="html=1;verticalAlign=bottom;endArrow=block;curved=0;rounded=0;" edge="1" parent="1">
          <mxGeometry x="0.0017" width="80" relative="1" as="geometry">
            <mxPoint x="390" y="130" as="sourcePoint" />
            <mxPoint x="570" y="130" as="targetPoint" />
            <mxPoint as="offset" />
          </mxGeometry>
        </mxCell>
        <mxCell id="yOJc_dGgryi1LDqPYUcy-129" value="" style="rounded=0;whiteSpace=wrap;html=1;rotation=0;" vertex="1" parent="1">
          <mxGeometry x="570" y="130" width="20" height="40" as="geometry" />
        </mxCell>
        <mxCell id="yOJc_dGgryi1LDqPYUcy-130" value="" style="rounded=0;whiteSpace=wrap;html=1;rotation=0;" vertex="1" parent="1">
          <mxGeometry x="970" y="140" width="20" height="20" as="geometry" />
        </mxCell>
        <mxCell id="yOJc_dGgryi1LDqPYUcy-131" value="request(advertisement)" style="html=1;verticalAlign=bottom;endArrow=block;curved=0;rounded=0;" edge="1" parent="1">
          <mxGeometry x="0.0017" width="80" relative="1" as="geometry">
            <mxPoint x="590" y="140" as="sourcePoint" />
            <mxPoint x="970" y="140" as="targetPoint" />
            <mxPoint as="offset" />
          </mxGeometry>
        </mxCell>
        <mxCell id="yOJc_dGgryi1LDqPYUcy-132" value="return(advertisement)" style="html=1;verticalAlign=bottom;endArrow=open;dashed=1;endSize=8;curved=0;rounded=0;" edge="1" parent="1">
          <mxGeometry relative="1" as="geometry">
            <mxPoint x="970" y="160" as="sourcePoint" />
            <mxPoint x="590" y="160" as="targetPoint" />
          </mxGeometry>
        </mxCell>
        <mxCell id="yOJc_dGgryi1LDqPYUcy-133" value="return(advertisement)" style="html=1;verticalAlign=bottom;endArrow=open;dashed=1;endSize=8;curved=0;rounded=0;" edge="1" parent="1">
          <mxGeometry relative="1" as="geometry">
            <mxPoint x="570" y="170" as="sourcePoint" />
            <mxPoint x="390" y="170" as="targetPoint" />
          </mxGeometry>
        </mxCell>
        <mxCell id="yOJc_dGgryi1LDqPYUcy-134" value="return(advertisement)" style="html=1;verticalAlign=bottom;endArrow=open;dashed=1;endSize=8;curved=0;rounded=0;" edge="1" parent="1">
          <mxGeometry relative="1" as="geometry">
            <mxPoint x="370" y="180" as="sourcePoint" />
            <mxPoint x="180" y="180" as="targetPoint" />
          </mxGeometry>
        </mxCell>
        <mxCell id="yOJc_dGgryi1LDqPYUcy-137" value="" style="rounded=0;whiteSpace=wrap;html=1;rotation=0;" vertex="1" parent="1">
          <mxGeometry x="370" y="200" width="20" height="140" as="geometry" />
        </mxCell>
        <mxCell id="yOJc_dGgryi1LDqPYUcy-138" value="request(candidates)" style="html=1;verticalAlign=bottom;endArrow=block;curved=0;rounded=0;" edge="1" parent="1">
          <mxGeometry x="0.0018" width="80" relative="1" as="geometry">
            <mxPoint x="180" y="200" as="sourcePoint" />
            <mxPoint x="370" y="200" as="targetPoint" />
            <mxPoint as="offset" />
          </mxGeometry>
        </mxCell>
        <mxCell id="yOJc_dGgryi1LDqPYUcy-139" value="request(candidates)" style="html=1;verticalAlign=bottom;endArrow=block;curved=0;rounded=0;" edge="1" parent="1">
          <mxGeometry x="0.0017" width="80" relative="1" as="geometry">
            <mxPoint x="390" y="210" as="sourcePoint" />
            <mxPoint x="770" y="210" as="targetPoint" />
            <mxPoint as="offset" />
          </mxGeometry>
        </mxCell>
        <mxCell id="yOJc_dGgryi1LDqPYUcy-140" value="" style="rounded=0;whiteSpace=wrap;html=1;rotation=0;" vertex="1" parent="1">
          <mxGeometry x="770" y="210" width="20" height="120" as="geometry" />
        </mxCell>
        <mxCell id="yOJc_dGgryi1LDqPYUcy-141" value="" style="rounded=0;whiteSpace=wrap;html=1;rotation=0;" vertex="1" parent="1">
          <mxGeometry x="970" y="220" width="20" height="100" as="geometry" />
        </mxCell>
        <mxCell id="yOJc_dGgryi1LDqPYUcy-142" value="request(candidates)" style="html=1;verticalAlign=bottom;endArrow=block;curved=0;rounded=0;" edge="1" parent="1">
          <mxGeometry x="0.0017" width="80" relative="1" as="geometry">
            <mxPoint x="790" y="220" as="sourcePoint" />
            <mxPoint x="970" y="220" as="targetPoint" />
            <mxPoint as="offset" />
          </mxGeometry>
        </mxCell>
        <mxCell id="yOJc_dGgryi1LDqPYUcy-143" value="return(null)" style="html=1;verticalAlign=bottom;endArrow=open;dashed=1;endSize=8;curved=0;rounded=0;" edge="1" parent="1">
          <mxGeometry relative="1" as="geometry">
            <mxPoint x="970" y="259.58" as="sourcePoint" />
            <mxPoint x="790" y="259.58" as="targetPoint" />
          </mxGeometry>
        </mxCell>
        <mxCell id="yOJc_dGgryi1LDqPYUcy-144" value="return(noCandidates)" style="html=1;verticalAlign=bottom;endArrow=open;dashed=1;endSize=8;curved=0;rounded=0;" edge="1" parent="1">
          <mxGeometry relative="1" as="geometry">
            <mxPoint x="770" y="269.58" as="sourcePoint" />
            <mxPoint x="390" y="269.58" as="targetPoint" />
          </mxGeometry>
        </mxCell>
        <mxCell id="yOJc_dGgryi1LDqPYUcy-145" value="return(noCandidatesMessage)" style="html=1;verticalAlign=bottom;endArrow=open;dashed=1;endSize=8;curved=0;rounded=0;" edge="1" parent="1">
          <mxGeometry relative="1" as="geometry">
            <mxPoint x="370" y="280" as="sourcePoint" />
            <mxPoint x="180" y="280" as="targetPoint" />
          </mxGeometry>
        </mxCell>
        <mxCell id="yOJc_dGgryi1LDqPYUcy-146" value="return(candidates)" style="html=1;verticalAlign=bottom;endArrow=open;dashed=1;endSize=8;curved=0;rounded=0;" edge="1" parent="1">
          <mxGeometry relative="1" as="geometry">
            <mxPoint x="970" y="319.17" as="sourcePoint" />
            <mxPoint x="790" y="319.17" as="targetPoint" />
          </mxGeometry>
        </mxCell>
        <mxCell id="yOJc_dGgryi1LDqPYUcy-147" value="return(candidates)" style="html=1;verticalAlign=bottom;endArrow=open;dashed=1;endSize=8;curved=0;rounded=0;" edge="1" parent="1">
          <mxGeometry relative="1" as="geometry">
            <mxPoint x="770" y="330" as="sourcePoint" />
            <mxPoint x="390" y="330" as="targetPoint" />
          </mxGeometry>
        </mxCell>
        <mxCell id="yOJc_dGgryi1LDqPYUcy-148" value="return(candidates)" style="html=1;verticalAlign=bottom;endArrow=open;dashed=1;endSize=8;curved=0;rounded=0;" edge="1" parent="1">
          <mxGeometry relative="1" as="geometry">
            <mxPoint x="370" y="339.99999999999994" as="sourcePoint" />
            <mxPoint x="180" y="339.99999999999994" as="targetPoint" />
          </mxGeometry>
        </mxCell>
        <mxCell id="yOJc_dGgryi1LDqPYUcy-149" value="ALT" style="shape=umlFrame;whiteSpace=wrap;html=1;pointerEvents=0;" vertex="1" parent="1">
          <mxGeometry x="90" y="240" width="940" height="60" as="geometry" />
        </mxCell>
        <mxCell id="yOJc_dGgryi1LDqPYUcy-150" value="" style="rounded=0;whiteSpace=wrap;html=1;rotation=0;" vertex="1" parent="1">
          <mxGeometry x="370" y="360" width="20" height="140" as="geometry" />
        </mxCell>
        <mxCell id="yOJc_dGgryi1LDqPYUcy-151" value="post(candidateStatusChange)" style="html=1;verticalAlign=bottom;endArrow=block;curved=0;rounded=0;" edge="1" parent="1">
          <mxGeometry x="0.0018" width="80" relative="1" as="geometry">
            <mxPoint x="180" y="360" as="sourcePoint" />
            <mxPoint x="370" y="360" as="targetPoint" />
            <mxPoint as="offset" />
          </mxGeometry>
        </mxCell>
        <mxCell id="yOJc_dGgryi1LDqPYUcy-152" value="post(candidateStatusChange)" style="html=1;verticalAlign=bottom;endArrow=block;curved=0;rounded=0;" edge="1" parent="1">
          <mxGeometry x="0.0017" width="80" relative="1" as="geometry">
            <mxPoint x="390" y="370" as="sourcePoint" />
            <mxPoint x="770" y="370" as="targetPoint" />
            <mxPoint as="offset" />
          </mxGeometry>
        </mxCell>
        <mxCell id="yOJc_dGgryi1LDqPYUcy-153" value="" style="rounded=0;whiteSpace=wrap;html=1;rotation=0;" vertex="1" parent="1">
          <mxGeometry x="770" y="370" width="20" height="120" as="geometry" />
        </mxCell>
        <mxCell id="yOJc_dGgryi1LDqPYUcy-154" value="" style="rounded=0;whiteSpace=wrap;html=1;rotation=0;" vertex="1" parent="1">
          <mxGeometry x="970" y="380" width="20" height="100" as="geometry" />
        </mxCell>
        <mxCell id="yOJc_dGgryi1LDqPYUcy-155" value="patch(candidateStatus)" style="html=1;verticalAlign=bottom;endArrow=block;curved=0;rounded=0;" edge="1" parent="1">
          <mxGeometry x="0.0017" width="80" relative="1" as="geometry">
            <mxPoint x="790" y="380" as="sourcePoint" />
            <mxPoint x="970" y="380" as="targetPoint" />
            <mxPoint as="offset" />
          </mxGeometry>
        </mxCell>
        <mxCell id="yOJc_dGgryi1LDqPYUcy-156" value="return(error)" style="html=1;verticalAlign=bottom;endArrow=open;dashed=1;endSize=8;curved=0;rounded=0;" edge="1" parent="1">
          <mxGeometry relative="1" as="geometry">
            <mxPoint x="970" y="419.58" as="sourcePoint" />
            <mxPoint x="790" y="419.58" as="targetPoint" />
          </mxGeometry>
        </mxCell>
        <mxCell id="yOJc_dGgryi1LDqPYUcy-157" value="return(error)" style="html=1;verticalAlign=bottom;endArrow=open;dashed=1;endSize=8;curved=0;rounded=0;" edge="1" parent="1">
          <mxGeometry relative="1" as="geometry">
            <mxPoint x="770" y="429.58" as="sourcePoint" />
            <mxPoint x="390" y="429.58" as="targetPoint" />
          </mxGeometry>
        </mxCell>
        <mxCell id="yOJc_dGgryi1LDqPYUcy-158" value="return(errorMessage)" style="html=1;verticalAlign=bottom;endArrow=open;dashed=1;endSize=8;curved=0;rounded=0;" edge="1" parent="1">
          <mxGeometry relative="1" as="geometry">
            <mxPoint x="370" y="440" as="sourcePoint" />
            <mxPoint x="180" y="440" as="targetPoint" />
          </mxGeometry>
        </mxCell>
        <mxCell id="yOJc_dGgryi1LDqPYUcy-159" value="return(confirmation)" style="html=1;verticalAlign=bottom;endArrow=open;dashed=1;endSize=8;curved=0;rounded=0;" edge="1" parent="1">
          <mxGeometry relative="1" as="geometry">
            <mxPoint x="970" y="479.17" as="sourcePoint" />
            <mxPoint x="790" y="479.17" as="targetPoint" />
          </mxGeometry>
        </mxCell>
        <mxCell id="yOJc_dGgryi1LDqPYUcy-160" value="return(confirmation)" style="html=1;verticalAlign=bottom;endArrow=open;dashed=1;endSize=8;curved=0;rounded=0;" edge="1" parent="1">
          <mxGeometry relative="1" as="geometry">
            <mxPoint x="770" y="490" as="sourcePoint" />
            <mxPoint x="390" y="490" as="targetPoint" />
          </mxGeometry>
        </mxCell>
        <mxCell id="yOJc_dGgryi1LDqPYUcy-161" value="return(confirmation)" style="html=1;verticalAlign=bottom;endArrow=open;dashed=1;endSize=8;curved=0;rounded=0;" edge="1" parent="1">
          <mxGeometry relative="1" as="geometry">
            <mxPoint x="370" y="499.99999999999994" as="sourcePoint" />
            <mxPoint x="180" y="499.99999999999994" as="targetPoint" />
          </mxGeometry>
        </mxCell>
        <mxCell id="yOJc_dGgryi1LDqPYUcy-162" value="ALT" style="shape=umlFrame;whiteSpace=wrap;html=1;pointerEvents=0;" vertex="1" parent="1">
          <mxGeometry x="110" y="400" width="900" height="60" as="geometry" />
        </mxCell>
        <mxCell id="yOJc_dGgryi1LDqPYUcy-163" value="IF NOT" style="shape=umlFrame;whiteSpace=wrap;html=1;pointerEvents=0;" vertex="1" parent="1">
          <mxGeometry x="90" y="300" width="940" height="220" as="geometry" />
        </mxCell>
        <mxCell id="yOJc_dGgryi1LDqPYUcy-164" value="IF NOT" style="shape=umlFrame;whiteSpace=wrap;html=1;pointerEvents=0;" vertex="1" parent="1">
          <mxGeometry x="110" y="460" width="900" height="50" as="geometry" />
        </mxCell>
        <mxCell id="yOJc_dGgryi1LDqPYUcy-165" value="&lt;b&gt;interaction&amp;nbsp;&lt;/b&gt;[UC10] Change candidate status (increment or reject)&amp;nbsp;" style="shape=umlFrame;whiteSpace=wrap;html=1;pointerEvents=0;width=390;height=20;" vertex="1" parent="1">
          <mxGeometry x="60" y="10" width="1000" height="540" as="geometry" />
        </mxCell>
      </root>
    </mxGraphModel>
  </diagram>
</mxfile>
